<?xml version="1.0" encoding="UTF-8"?>
<svg version="1.1" xmlns="http://www.w3.org/2000/svg" width="583" height="443" viewBox="0 0 583 443">
<path d="M0 0 C15.85779407 12.47900272 20.03842353 35.232659 26.3125 53.5625 C27.99817992 58.48325058 29.68443095 63.40380498 31.37109375 68.32421875 C31.7842836 69.53109848 32.19747345 70.73797821 32.6231842 71.98143005 C35.05809453 79.07786335 37.54794062 86.15112654 40.09765625 93.20703125 C40.93351129 95.54525029 41.76757202 97.88409924 42.60076904 100.2232666 C43.10746298 101.63146432 43.62170845 103.03697329 44.14434814 104.43933105 C47.72418072 114.05141302 50.63474452 123.96364858 47.26416016 134.08520508 C46.05235289 136.62244187 44.7053879 138.9467783 43.1875 141.3125 C42.72359863 142.06853516 42.25969727 142.82457031 41.78173828 143.60351562 C40.30986523 145.95089505 38.78811652 148.2580444 37.25 150.5625 C36.09276586 152.31966476 34.93655167 154.07750158 33.78125 155.8359375 C32.89179687 157.18703613 32.89179687 157.18703613 31.984375 158.56542969 C29.03150082 163.07979658 26.14003005 167.63273791 23.25 172.1875 C22.6715332 173.09814209 22.09306641 174.00878418 21.49707031 174.94702148 C19.72649756 177.7350605 17.95698225 180.52376878 16.1875 183.3125 C7.91023997 196.34940873 -0.40254126 209.36078584 -8.8125 222.3125 C-17.87353339 236.27353582 -26.85388637 250.28554411 -35.8125 264.3125 C-36.42029297 265.26350586 -37.02808594 266.21451172 -37.65429688 267.19433594 C-44.89865563 278.53315824 -52.07425887 289.91241927 -59.1940918 301.32983398 C-64.62849721 310.0369041 -70.1187307 318.70722589 -75.65234375 327.3515625 C-77.61069434 330.41298643 -79.54350928 333.48670041 -81.44140625 336.5859375 C-89.49939673 349.65594836 -89.49939673 349.65594836 -96.8125 353.3125 C-108.66379589 354.62931065 -117.74192461 346.87559806 -127.3125 340.6875 C-132.95170184 337.05530744 -138.58793071 333.42929697 -144.3203125 329.9453125 C-145.18333984 329.41631348 -146.04636719 328.88731445 -146.93554688 328.34228516 C-148.55830894 327.3500694 -150.18693195 326.36735215 -151.82226562 325.39599609 C-156.34442594 322.61197889 -159.62903407 320.3249295 -161.8125 315.3125 C-162.38739723 310.87426345 -162.4635295 306.47128373 -162.5 302 C-162.54186643 299.62883791 -162.58723901 297.25773419 -162.63671875 294.88671875 C-162.65351685 293.31796997 -162.65351685 293.31796997 -162.6706543 291.7175293 C-162.54244936 289.36113458 -162.54244936 289.36113458 -163.8125 288.3125 C-166.75879384 288.18911702 -169.6852149 288.12630813 -172.6328125 288.1015625 C-174.46615447 288.07347506 -176.29948768 288.04481049 -178.1328125 288.015625 C-181.02929261 287.9744846 -183.92561235 287.93760865 -186.82226562 287.91113281 C-189.61362875 287.88339137 -192.40424171 287.83749804 -195.1953125 287.7890625 C-196.48165085 287.7841832 -196.48165085 287.7841832 -197.79397583 287.77920532 C-203.86287523 287.65615929 -208.66434624 286.70075457 -213.625 282.9375 C-217.29763665 277.91178668 -217.09273954 272.81094989 -217.0859375 266.84765625 C-217.1062234 264.97720752 -217.12707412 263.10676485 -217.1484375 261.23632812 C-217.17103801 258.30243803 -217.18751238 255.36878763 -217.19335938 252.43481445 C-217.20289865 249.59282679 -217.23668677 246.75190433 -217.2734375 243.91015625 C-217.26839203 243.0381105 -217.26334656 242.16606476 -217.25814819 241.26759338 C-217.34594919 235.81096496 -218.14079404 232.61724436 -221.8125 228.3125 C-224.83634027 226.29660648 -225.41875401 226.06192709 -228.80566406 226.04125977 C-229.60369446 226.03107315 -230.40172485 226.02088654 -231.22393799 226.01039124 C-232.51301056 226.00718117 -232.51301056 226.00718117 -233.828125 226.00390625 C-235.65495097 225.97873655 -237.48177382 225.95333867 -239.30859375 225.92773438 C-242.18309651 225.89905308 -245.05754461 225.87503246 -247.93212891 225.85620117 C-250.71025461 225.83444851 -253.48772752 225.79499172 -256.265625 225.75390625 C-257.11690979 225.75379044 -257.96819458 225.75367462 -258.84527588 225.7535553 C-264.90432867 225.65385575 -270.27025243 224.93948915 -274.6875 220.375 C-277.63194954 214.9768425 -277.06917221 208.92223861 -277.125 202.9375 C-277.15400391 201.90882813 -277.18300781 200.88015625 -277.21289062 199.8203125 C-277.26250705 193.89687492 -277.18350489 189.76324129 -272.8125 185.3125 C-267.57087694 182.97856108 -262.55653076 182.98622464 -256.92578125 182.93359375 C-255.51754341 182.90810204 -255.51754341 182.90810204 -254.08085632 182.88209534 C-251.09563836 182.82917678 -248.11043278 182.7887531 -245.125 182.75 C-242.1289242 182.7060284 -239.13295382 182.65932717 -236.13700867 182.60719299 C-234.27625998 182.57530875 -232.41541806 182.54839613 -230.55451965 182.52696228 C-229.71322006 182.51347244 -228.87192047 182.4999826 -228.00512695 182.48608398 C-227.26599564 182.47657211 -226.52686432 182.46706024 -225.76533508 182.45726013 C-223.59651336 182.37674375 -223.59651336 182.37674375 -220.8125 181.3125 C-219.64583333 179.39583333 -219.64583333 179.39583333 -218.8125 177.3125 C-218.4825 176.6525 -218.1525 175.9925 -217.8125 175.3125 C-217.69131633 172.26096017 -217.62670666 169.22840361 -217.6015625 166.17578125 C-217.57348094 164.30012168 -217.5448164 162.42447076 -217.515625 160.54882812 C-217.47445765 157.59090536 -217.43757277 154.63314191 -217.41113281 151.67504883 C-217.38340527 148.8207856 -217.33751967 145.96725803 -217.2890625 143.11328125 C-217.28580963 142.23698563 -217.28255676 141.36069 -217.27920532 140.45783997 C-217.11516981 132.20097015 -214.50784458 126.89405761 -209.625 120.1875 C-209.20428223 119.60766357 -208.78356445 119.02782715 -208.35009766 118.43041992 C-203.52332626 111.82657319 -198.53284952 105.34340277 -193.56225586 98.84765625 C-189.60850397 93.68020971 -185.70323995 88.48836405 -181.90234375 83.20703125 C-172.90035531 70.73885661 -163.68504988 58.42423377 -154.43359375 46.140625 C-152.07052864 42.99994587 -149.73006114 39.8445566 -147.41015625 36.671875 C-146.87535645 35.94508545 -146.34055664 35.2182959 -145.78955078 34.46948242 C-144.80138271 33.12512882 -143.81877577 31.77665955 -142.84326172 30.4230957 C-142.39869629 29.82070068 -141.95413086 29.21830566 -141.49609375 28.59765625 C-141.12025146 28.08082275 -140.74440918 27.56398926 -140.35717773 27.03149414 C-135.60777902 21.74612725 -131.48412123 19.46755737 -124.69677734 17.83129883 C-123.91348745 17.62831334 -123.13019756 17.42532785 -122.32317162 17.21619129 C-120.6619963 16.78673158 -118.99909709 16.3638918 -117.33464813 15.94729996 C-114.87449799 15.32810429 -112.42221949 14.68470644 -109.9710083 14.03109741 C-100.10023203 11.40003501 -90.20793119 8.85002918 -80.31685829 6.29651165 C-75.36639808 5.01847001 -70.41759243 3.73466035 -65.47216797 2.43725586 C-60.63064745 1.16722578 -55.78560414 -0.08842083 -50.9377861 -1.33418846 C-49.10986207 -1.80643349 -47.28320011 -2.28359492 -45.45793533 -2.76601601 C-29.54965113 -6.96404984 -14.47025958 -9.95319206 0 0 Z " fill="#1786F4" transform="translate(407.8125,9.6875)"/>
<path d="M0 0 C1.03584732 -0.00571014 2.07169464 -0.01142029 3.13893127 -0.01730347 C4.26990234 -0.01842133 5.40087341 -0.01953918 6.56611633 -0.02069092 C8.35947166 -0.02813828 8.35947166 -0.02813828 10.1890564 -0.03573608 C13.4661846 -0.04783365 16.74327716 -0.05530034 20.02042365 -0.05974674 C22.07083709 -0.06268252 24.12124501 -0.06678835 26.17165565 -0.07125092 C32.59544399 -0.08492098 39.01921961 -0.09458922 45.44302148 -0.09845281 C52.84210819 -0.10292813 60.24100968 -0.1204535 67.6400401 -0.1494534 C73.36930485 -0.17112394 79.09851771 -0.18115999 84.82782298 -0.18249393 C88.24476141 -0.18353841 91.6615256 -0.18936922 95.07842064 -0.20731354 C98.89607549 -0.22441187 102.71328223 -0.22248399 106.53096008 -0.21600342 C107.65181 -0.2252182 108.77265991 -0.23443298 109.92747498 -0.243927 C117.43068493 -0.20412828 124.83240598 0.10082334 130.37202454 5.64044189 C132.63134311 9.40597285 132.99927381 12.20803074 133.01246643 16.51675415 C133.01817657 17.63273483 133.02388672 18.74871552 133.0297699 19.89851379 C133.03144669 21.73602455 133.03144669 21.73602455 133.03315735 23.61065674 C133.03812225 24.90028824 133.04308716 26.18991974 133.04820251 27.51863098 C133.06131854 31.05793186 133.06776979 34.59721378 133.07221317 38.13653517 C133.07514491 40.34788868 133.07924989 42.55923702 133.08371735 44.77058792 C133.09738956 51.68986403 133.10705783 58.60912831 133.11091924 65.52841699 C133.11540085 73.51504296 133.13295458 81.50149785 133.16191983 89.4880718 C133.18353469 95.66226056 133.19362339 101.83640119 133.19496036 108.01062739 C133.19600844 111.69796172 133.2019169 115.38513517 133.21977997 119.07242966 C133.23931859 123.18553811 133.2349725 127.29828828 133.22846985 131.41143799 C133.23768463 132.6323967 133.24689941 133.85335541 133.25639343 135.11131287 C133.2480397 136.79374336 133.2480397 136.79374336 133.23951721 138.51016235 C133.24098377 139.48244467 133.24245033 140.45472698 133.24396133 141.4564724 C132.79967711 144.6625152 131.75217162 146.52677188 129.87202454 149.14044189 C124.26887478 153.35223058 117.5879435 152.57629645 110.89350891 152.56036377 C109.58553848 152.56883331 108.27756805 152.57730286 106.92996216 152.58602905 C103.35352521 152.60819175 99.77731901 152.61117852 96.20082283 152.60928154 C93.21121674 152.60916163 90.22165918 152.61773383 87.23206663 152.62605906 C80.17826297 152.64527307 73.12457766 152.64818378 66.070755 152.64141846 C58.80080546 152.63477413 51.53136283 152.65766188 44.26151609 152.69473219 C38.01164185 152.72544164 31.76193061 152.73678804 25.51198244 152.73289537 C21.78265376 152.73082967 18.05371991 152.73627934 14.32446289 152.76078796 C10.1661476 152.78721579 6.00890195 152.77331795 1.85054016 152.75567627 C0.61918839 152.76893951 -0.61216339 152.78220276 -1.88082886 152.79586792 C-11.17878822 152.70408448 -11.17878822 152.70408448 -14.87663269 149.78948975 C-18.03887006 146.0686356 -18.25450608 143.45460509 -18.27514648 138.7328949 C-18.28587944 137.04847038 -18.28587944 137.04847038 -18.29682922 135.33001709 C-18.29951813 134.09723022 -18.30220703 132.86444336 -18.30497742 131.59429932 C-18.31154861 130.29652054 -18.31811981 128.99874176 -18.32489014 127.66163635 C-18.34591261 123.35640699 -18.35629023 119.05117734 -18.36625671 114.74591064 C-18.37030483 113.2629577 -18.37442177 111.78000495 -18.3786068 110.29705238 C-18.39765381 103.33025715 -18.41188635 96.36347248 -18.42021877 89.39665622 C-18.42999236 81.35792008 -18.45631685 73.31945921 -18.49671966 65.28082007 C-18.52688759 59.06500363 -18.54168824 52.84926608 -18.54499978 46.63337785 C-18.54734935 42.92192099 -18.55629735 39.21075836 -18.58146095 35.49938011 C-18.60908921 31.35766666 -18.60490852 27.21656783 -18.59794617 23.07476807 C-18.61075623 21.84805389 -18.62356628 20.62133972 -18.63676453 19.35745239 C-18.59782629 13.0129485 -18.52096577 8.90110368 -14.12797546 4.14044189 C-9.52420875 0.80271102 -5.59849096 0.01852374 0 0 Z " fill="#1786F4" transform="translate(27.127975463867188,261.85955810546875)"/>
<path d="M0 0 C1.03584732 -0.00426498 2.07169464 -0.00852997 3.13893127 -0.01292419 C4.83538788 -0.01224442 4.83538788 -0.01224442 6.56611633 -0.0115509 C7.76168655 -0.01490952 8.95725677 -0.01826813 10.1890564 -0.02172852 C13.46618871 -0.02960113 16.74328301 -0.0329062 20.02042365 -0.0335443 C22.07083707 -0.03425584 24.12124388 -0.0363922 26.17165565 -0.03904152 C33.33374578 -0.04829298 40.49581731 -0.05237692 47.65791321 -0.05158997 C54.3186561 -0.05099018 60.97931775 -0.06152295 67.6400401 -0.07733363 C73.36930491 -0.09044527 79.0985433 -0.0957723 84.82782298 -0.09513456 C88.24471792 -0.0948805 91.66154073 -0.09767977 95.07842064 -0.10831261 C98.89600176 -0.11813608 102.71337545 -0.11522468 106.53096008 -0.10920715 C107.65181 -0.11482666 108.77265991 -0.12044617 109.92747498 -0.12623596 C126.13586719 -0.06148417 126.13586719 -0.06148417 131.38798523 4.95094299 C135.21430936 10.09252962 134.69442787 15.89901664 134.61665344 22.05802917 C134.62395477 23.34824478 134.6312561 24.63846039 134.63877869 25.96777344 C134.65751444 29.49071191 134.63882066 33.01253111 134.61211443 36.53538179 C134.58940447 40.22859037 134.5977064 43.92174711 134.60160828 47.61500549 C134.60337127 53.81380913 134.5812714 60.01217408 134.54438782 66.21086121 C134.50201884 73.37233364 134.49504212 80.53316465 134.50751173 87.69473708 C134.51890802 94.59380709 134.50759978 101.49265178 134.48516464 108.3916893 C134.47588817 111.32382255 134.47411809 114.25581766 134.47833633 117.18796158 C134.48280962 121.28171029 134.45386141 125.37456359 134.42134094 129.46818542 C134.42629578 130.68285995 134.43125061 131.89753448 134.43635559 133.14901733 C134.33264282 141.31626873 134.33264282 141.31626873 132.08769226 145.30030823 C128.20984128 148.50912403 125.41502898 149.38341044 120.38218689 149.43910217 C119.2662767 149.4560463 118.15036652 149.47299042 117.00064087 149.490448 C115.17087959 149.50311455 115.17087959 149.50311455 113.30415344 149.51603699 C111.37189659 149.54074318 111.37189659 149.54074318 109.40060425 149.56594849 C105.86961432 149.6103393 102.33862127 149.64194799 98.80746889 149.670156 C96.60026613 149.6883864 94.39310792 149.70939574 92.18593979 149.73140335 C84.48272926 149.80817403 76.77950835 149.8746555 69.0761261 149.93156433 C61.90044962 149.98484261 54.72524535 150.06050185 47.54989493 150.14664638 C41.38511029 150.21967289 35.22030758 150.27707141 29.0552572 150.32237446 C25.37505685 150.3496804 21.69517858 150.38325819 18.01520157 150.4325676 C13.90965462 150.48693709 9.80454795 150.50882055 5.69868469 150.52775574 C4.4828923 150.54834549 3.26709991 150.56893524 2.01446533 150.59014893 C-8.60406051 150.59038729 -8.60406051 150.59038729 -13.12797546 146.13371277 C-17.26470116 140.61835136 -16.54996426 134.20855115 -16.51615906 127.61418152 C-16.52141602 126.35497894 -16.52667297 125.09577637 -16.53208923 123.79841614 C-16.54572676 120.35624086 -16.54047911 116.91433634 -16.53095198 113.47215652 C-16.52333681 109.86348511 -16.53040614 106.2548363 -16.53511047 102.64616394 C-16.54056263 96.58695835 -16.53339064 90.5278626 -16.51908875 84.46867371 C-16.50276319 77.47149573 -16.50805209 70.47458003 -16.52456796 63.47740841 C-16.53819827 57.4610848 -16.54009497 51.44483997 -16.53225195 45.4285059 C-16.5275839 41.83901739 -16.52692659 38.24965202 -16.53686142 34.66017151 C-16.54716624 30.65770529 -16.53286859 26.65568858 -16.51615906 22.65324402 C-16.52223175 21.46864594 -16.52830444 20.28404785 -16.53456116 19.06355286 C-16.4566433 8.99239092 -16.4566433 8.99239092 -13.12797546 4.13371277 C-9.13916753 0.40224728 -5.30811397 0.0098945 0 0 Z " fill="#1887F4" transform="translate(24.127975463867188,16.866287231445313)"/>
<path d="M0 0 C16.17294996 7.94899241 26.76368109 33.32590476 34 49 C34.30244629 49.64501465 34.60489258 50.2900293 34.91650391 50.95458984 C57.65287241 99.71348998 60.92395429 157.07941402 43 208 C32.33675672 236.77902544 16.21100183 261.91521849 -5 284 C-5.4861377 284.50805176 -5.97227539 285.01610352 -6.47314453 285.53955078 C-13.24186137 292.57275672 -20.25017206 299.03938036 -28 305 C-28.55526367 305.4316748 -29.11052734 305.86334961 -29.68261719 306.30810547 C-43.13586766 316.71387334 -57.21109329 324.68079512 -73 331 C-74.14855469 331.49886719 -75.29710937 331.99773437 -76.48046875 332.51171875 C-82.83715911 335.181675 -87.27093438 337.00691431 -94 335 C-98.86419036 332.52201623 -101.20870647 330.17484798 -103 325 C-103.71128872 320.6093289 -103.37960978 317.75921956 -101.375 313.75 C-96.80663734 308.46031692 -90.98146479 305.97028583 -84.6875 303.3125 C-65.54235438 294.97433699 -48.67268575 285.1614594 -33.60546875 270.55419922 C-32.48673486 269.47119132 -31.36118147 268.39520243 -30.23046875 267.32470703 C-15.78337458 253.63418438 -4.02511394 238.77114706 5 221 C5.31662598 220.38447266 5.63325195 219.76894531 5.95947266 219.13476562 C27.08725324 177.60736818 30.12438419 126.74554925 15.88427734 82.62011719 C9.09003282 62.48874441 -0.32176943 44.10222841 -13.15625 27.15234375 C-16.55078509 22.65180235 -19.11110794 18.93568737 -19.3359375 13.171875 C-18.54059677 8.02990468 -15.54578982 4.37403539 -11.75 1 C-7.84701417 -0.41926758 -4.09929296 -0.7159724 0 0 Z " fill="#1686F4" transform="translate(522,103)"/>
<path d="M0 0 C16.11877027 10.62373495 23.7012644 40.726045 27.59741211 58.67651367 C34.86090757 94.22809805 26.88732843 134.60714694 7.1875 165 C3.04089228 171.20523269 -1.3768941 177.15567811 -6.25 182.8125 C-6.90613281 183.58980469 -7.56226563 184.36710938 -8.23828125 185.16796875 C-31.5087108 212.14359291 -67.84131778 229.72908448 -103.0625 233.625 C-104.79052509 233.71361667 -106.52015088 233.77318525 -108.25 233.8125 C-108.87777344 233.84214844 -109.50554687 233.87179687 -110.15234375 233.90234375 C-112.28893944 234.00181282 -114.42438664 234.06760586 -116.5625 234.125 C-118.53669922 234.18107422 -118.53669922 234.18107422 -120.55078125 234.23828125 C-125.64745708 233.65165225 -128.70983295 231.56510388 -132.0625 227.75 C-134.48959201 223.79000777 -134.63595477 220.36676632 -134.25 215.8125 C-131.51114877 210.72606199 -128.7398792 207.64245973 -123.25 205.8125 C-121.40287133 205.6204821 -119.55522699 205.43216169 -117.70532227 205.26904297 C-82.6481203 202.07619198 -48.44210686 188.1133815 -25.25 160.8125 C-4.76265542 134.75746942 2.71272408 101.67116847 -0.9375 69.0625 C-3.43991765 53.12696536 -8.86817628 36.98272606 -17.625 23.375 C-20.36361119 18.96812431 -21.97714493 15.06305299 -21.25 9.8125 C-19.59276411 5.67302868 -17.29467918 2.71600632 -13.9375 -0.1875 C-8.94219021 -2.04621992 -4.88430758 -1.78465085 0 0 Z " fill="#1686F4" transform="translate(486.25,156.1875)"/>
<path d="M0 0 C0.82627899 -0.00365067 1.65255798 -0.00730133 2.50387573 -0.01106262 C5.23773691 -0.0191752 7.97100674 -0.00555343 10.70483398 0.0090332 C12.60147603 0.00955168 14.49811862 0.00903447 16.39476013 0.00752258 C20.37018859 0.00761234 24.34541436 0.01804875 28.32080078 0.03613281 C33.4245303 0.05883551 38.52796396 0.05936162 43.63173008 0.05261517 C47.54785303 0.0492791 51.46390813 0.05589817 55.38001823 0.0657444 C57.2623452 0.06960179 59.14467971 0.07074239 61.02700996 0.06915855 C63.65357054 0.06878904 66.27974695 0.08137554 68.90625 0.09765625 C70.08061363 0.09394012 70.08061363 0.09394012 71.27870178 0.09014893 C76.65968475 0.14357147 76.65968475 0.14357147 78.88842773 2.37231445 C79.08694352 5.0721482 79.16115559 7.6694086 79.1472168 10.37036133 C79.15072144 11.19649429 79.15422607 12.02262726 79.15783691 12.87379456 C79.16666154 15.61296923 79.16080254 18.35188701 79.15405273 21.09106445 C79.15539918 22.98913625 79.15733953 24.88720771 79.15985107 26.78527832 C79.16280333 30.76663491 79.15850144 34.74790186 79.14916992 38.72924805 C79.13777533 43.84083948 79.14433427 48.95222091 79.15631485 54.06380463 C79.16353072 57.98420809 79.16124678 61.90456149 79.15605927 65.82496643 C79.15472201 67.71008834 79.15637312 69.59521476 79.16101837 71.48033142 C79.16607913 74.1117665 79.15837982 76.74285817 79.1472168 79.37426758 C79.15126526 80.15874771 79.15531372 80.94322784 79.15948486 81.7514801 C79.1169561 87.14378609 79.1169561 87.14378609 76.88842773 89.37231445 C74.1583765 89.57086971 71.52976041 89.64503226 68.79858398 89.63110352 C67.96269745 89.63460815 67.12681091 89.63811279 66.26559448 89.64172363 C63.49395519 89.65054859 60.72256976 89.64468913 57.95092773 89.63793945 C56.0304357 89.63928588 54.10994399 89.64122623 52.18945312 89.64373779 C48.16101848 89.64669009 44.13267241 89.64238802 40.10424805 89.63305664 C34.9321233 89.62166205 29.76020611 89.62822096 24.58808899 89.64020157 C20.62136258 89.64741732 16.65468564 89.64513355 12.68795776 89.63994598 C10.78050716 89.6386087 8.87305211 89.64025996 6.96560669 89.64490509 C4.30304002 89.64996565 1.64081278 89.64226681 -1.02172852 89.63110352 C-1.81555939 89.63515198 -2.60939026 89.63920044 -3.42727661 89.64337158 C-8.88304398 89.60084274 -8.88304398 89.60084274 -11.11157227 87.37231445 C-11.31528824 84.708196 -11.39476757 82.14759219 -11.38623047 79.48193359 C-11.3913414 78.66716049 -11.39645233 77.85238739 -11.40171814 77.01292419 C-11.41565442 74.3110323 -11.41465434 71.60939434 -11.41235352 68.9074707 C-11.4162383 67.03421432 -11.42057251 65.16095882 -11.42533875 63.28770447 C-11.43280969 59.35762682 -11.43250341 55.427639 -11.42724609 51.49755859 C-11.42145097 46.4554978 -11.43837923 41.41380428 -11.46159077 36.37180424 C-11.47630662 32.50196678 -11.47720273 28.63221819 -11.47408104 24.76235771 C-11.47459536 22.90317495 -11.47985372 21.04398735 -11.48989296 19.18483162 C-11.50219829 16.58700674 -11.49550148 13.98990276 -11.48388672 11.39208984 C-11.49153046 10.62055573 -11.49917419 9.84902161 -11.50704956 9.05410767 C-11.47914704 6.23763572 -11.39658683 3.9270239 -10.09527588 1.39434814 C-6.86847313 -0.26814876 -3.54493158 -0.03469977 0 0 Z " fill="#FDFEFE" transform="translate(50.111572265625,47.627685546875)"/>
<path d="M0 0 C1.226548 0.00303635 1.226548 0.00303635 2.47787476 0.00613403 C3.76315567 0.00350555 3.76315567 0.00350555 5.07440186 0.00082397 C7.9211527 -0.00359561 10.76784197 -0.00065618 13.61459351 0.00271606 C15.58375053 0.00204306 17.55290747 0.00107306 19.52206421 -0.00018311 C23.65480335 -0.00166022 27.78752093 0.00049492 31.92025757 0.00515747 C37.23033871 0.01085476 42.54036932 0.00757583 47.85044861 0.00158501 C51.91834904 -0.00202023 55.9862374 -0.00088219 60.05413818 0.0017128 C62.01265468 0.00238217 63.97117226 0.00155329 65.9296875 -0.00076675 C68.6619255 -0.00329267 71.39408047 0.00054645 74.12631226 0.00613403 C74.94401093 0.0041098 75.76170959 0.00208557 76.60418701 0 C82.18783105 0.02126611 82.18783105 0.02126611 83.30209351 1.13552856 C83.40254403 3.80802924 83.43825999 6.45471438 83.43148804 9.12771606 C83.43411652 10.38373627 83.43411652 10.38373627 83.4367981 11.66513062 C83.44121752 14.4469507 83.43827831 17.22870777 83.43490601 20.01052856 C83.43557902 21.9348451 83.43654902 23.85916154 83.43780518 25.78347778 C83.43928227 29.82206021 83.43712722 33.86062057 83.4324646 37.89920044 C83.42676731 43.08821367 83.43004625 48.27717519 83.43603706 53.46618652 C83.43964236 57.44144077 83.43850423 61.41668265 83.43590927 65.39193726 C83.43523992 67.30579637 83.43606872 69.21965658 83.43838882 71.1335144 C83.44091484 73.80348707 83.43707549 76.47337477 83.43148804 79.14334106 C83.43351227 79.94233826 83.4355365 80.74133545 83.43762207 81.56454468 C83.416356 87.02126607 83.416356 87.02126607 82.30209351 88.13552856 C79.56858602 88.2360138 76.86031459 88.27169118 74.12631226 88.2649231 C72.84103134 88.26755157 72.84103134 88.26755157 71.52978516 88.27023315 C68.68303431 88.27465274 65.83634504 88.27171331 62.98959351 88.26834106 C61.02043648 88.26901407 59.05127954 88.26998407 57.0821228 88.27124023 C52.94938366 88.27271735 48.81666609 88.27056221 44.68392944 88.26589966 C39.3738483 88.26020236 34.06381769 88.2634813 28.7537384 88.26947212 C24.68583797 88.27307736 20.61794961 88.27193932 16.55004883 88.26934433 C14.59153233 88.26867496 12.63301475 88.26950384 10.67449951 88.27182388 C7.94226151 88.2743498 5.21010654 88.27051068 2.47787476 88.2649231 C1.25132675 88.26795944 1.25132675 88.26795944 0 88.27105713 C-5.58364404 88.24979102 -5.58364404 88.24979102 -6.69790649 87.13552856 C-6.79835702 84.46302789 -6.83407298 81.81634275 -6.82730103 79.14334106 C-6.82905334 78.30599426 -6.83080566 77.46864746 -6.83261108 76.60592651 C-6.83703051 73.82410643 -6.8340913 71.04234936 -6.83071899 68.26052856 C-6.83139201 66.33621203 -6.83236201 64.41189558 -6.83361816 62.48757935 C-6.83509526 58.44899692 -6.83294021 54.41043656 -6.82827759 50.37185669 C-6.82258029 45.18284346 -6.82585924 39.99388194 -6.83185005 34.80487061 C-6.83545535 30.82961636 -6.83431722 26.85437448 -6.83172226 22.87911987 C-6.8310529 20.96526076 -6.83188171 19.05140055 -6.83420181 17.13754272 C-6.83672783 14.46757006 -6.83288848 11.79768236 -6.82730103 9.12771606 C-6.82932526 8.32871887 -6.83134949 7.52972168 -6.83343506 6.70651245 C-6.80794073 0.16485 -6.52907823 0.02486693 0 0 Z " fill="#FDFEFE" transform="translate(46.697906494140625,292.8644714355469)"/>
<path d="M0 0 C1.14533203 -0.02900391 2.29066406 -0.05800781 3.47070312 -0.08789062 C4.57220703 -0.09626953 5.67371094 -0.10464844 6.80859375 -0.11328125 C8.31957642 -0.13515503 8.31957642 -0.13515503 9.86108398 -0.1574707 C12.5625 0.3125 12.5625 0.3125 14.8840332 1.86352539 C17.13936505 5.15417757 17.16511437 8.06355044 17.171875 11.921875 C17.18841125 12.64868469 17.20494751 13.37549438 17.22198486 14.12432861 C17.27042361 16.43713869 17.29182489 18.74929157 17.3125 21.0625 C17.34066341 22.63414757 17.37059137 24.20576459 17.40234375 25.77734375 C17.47618047 29.62234169 17.52577948 33.46697572 17.5625 37.3125 C18.46174194 37.29678955 18.46174194 37.29678955 19.37915039 37.28076172 C22.1277233 37.23887163 24.87622874 37.21306997 27.625 37.1875 C28.56794922 37.17074219 29.51089844 37.15398437 30.48242188 37.13671875 C35.80498783 37.0996277 40.61869574 37.10825606 45.5625 39.3125 C49.85667455 43.62762175 50.1010704 47.82031549 50.15820312 53.625 C50.14176758 55.1409375 50.14176758 55.1409375 50.125 56.6875 C50.16077148 58.19183594 50.16077148 58.19183594 50.19726562 59.7265625 C50.1841035 66.43047342 49.07199768 71.20017468 44.5625 76.3125 C42.07035043 77.55857479 40.35405904 77.45963055 37.56542969 77.48950195 C36.52384705 77.50233719 35.4822644 77.51517242 34.40911865 77.52839661 C33.27895325 77.53578354 32.14878784 77.54317047 30.984375 77.55078125 C29.82504456 77.558853 28.66571411 77.56692474 27.47125244 77.57524109 C25.01323954 77.58909135 22.55520733 77.59980927 20.09716797 77.60766602 C16.34175014 77.62486603 12.58721531 77.66874391 8.83203125 77.71289062 C6.44531898 77.72301841 4.05859922 77.73153425 1.671875 77.73828125 C0.54980652 77.75578934 -0.57226196 77.77329742 -1.72833252 77.79133606 C-7.96252282 77.77403508 -11.71571969 77.52396111 -16.4375 73.3125 C-20.77887799 68.61911839 -21.55279927 65.25488838 -21.59863281 58.99658203 C-21.60824036 57.9351297 -21.6178479 56.87367737 -21.62774658 55.78005981 C-21.63199646 54.6383432 -21.63624634 53.49662659 -21.640625 52.3203125 C-21.64632507 51.14161591 -21.65202515 49.96291931 -21.65789795 48.74850464 C-21.66734176 46.25535987 -21.67387947 43.76220265 -21.67773438 41.26904297 C-21.68744498 37.4590883 -21.71847718 33.64967196 -21.75 29.83984375 C-21.75652979 27.41666987 -21.76178036 24.99349213 -21.765625 22.5703125 C-21.7779718 21.43264435 -21.7903186 20.2949762 -21.80303955 19.12283325 C-21.78433593 12.46829779 -21.32348795 7.79973544 -16.9375 2.5 C-12.3874818 -1.10209774 -5.47519799 0.04606168 0 0 Z " fill="#1786F4" transform="translate(211.4375,337.6875)"/>
<path d="M0 0 C1.19514221 -0.00960754 2.39028442 -0.01921509 3.62164307 -0.02911377 C4.91020203 -0.03336365 6.19876099 -0.03761353 7.52636719 -0.04199219 C8.1857 -0.04481956 8.84503281 -0.04764694 9.5243454 -0.05056 C13.01542051 -0.06552851 16.50645457 -0.07477193 19.99755859 -0.07910156 C23.58627364 -0.08457417 27.17460697 -0.10858278 30.76320267 -0.13707352 C33.5377712 -0.15579255 36.3122496 -0.16091045 39.08687592 -0.16243744 C41.04764717 -0.16689841 43.00837 -0.18550091 44.96905518 -0.20440674 C51.71584036 -0.18764188 56.98470612 0.15257198 63.07324219 3.16113281 C67.69033944 7.92716868 67.25602116 13.18881419 67.26074219 19.41113281 C67.27298828 20.24515625 67.28523438 21.07917969 67.29785156 21.93847656 C67.31215477 28.01257015 67.10013391 33.59373663 63.19824219 38.53613281 C59.35702045 41.47353767 55.56720023 41.29318228 50.83935547 41.32226562 C48.94686569 41.33667694 48.94686569 41.33667694 47.0161438 41.35137939 C45.64194928 41.35622748 44.26775264 41.36050628 42.89355469 41.36425781 C41.47874959 41.37001408 40.06394449 41.37577176 38.6491394 41.38153076 C35.68519733 41.39202243 32.72128224 41.39787721 29.75732422 41.40136719 C25.96888313 41.40685091 22.18080161 41.4308837 18.39247322 41.45933914 C15.47043836 41.47800829 12.54848944 41.48317336 9.62639999 41.48470306 C8.2302135 41.48772002 6.83402817 41.49571614 5.43790054 41.50888824 C3.48064601 41.52603788 1.52324215 41.52221084 -0.43408203 41.51757812 C-1.54564667 41.52122375 -2.6572113 41.52486938 -3.80245972 41.52862549 C-8.25882923 41.00444914 -11.66051738 39.51470018 -14.73925781 36.22363281 C-17.33212163 31.72023776 -17.10984411 26.98689323 -17.11425781 21.91113281 C-17.12650391 21.18539062 -17.13875 20.45964844 -17.15136719 19.71191406 C-17.1676921 13.60639621 -16.99331597 7.28207408 -12.55175781 2.72363281 C-8.34727695 0.22096563 -4.85466198 0.03154977 0 0 Z " fill="#1786F4" transform="translate(24.9267578125,192.8388671875)"/>
<path d="M0 0 C7.49296555 -0.10125241 14.98575533 -0.17140327 22.47924805 -0.21972656 C25.02944532 -0.23986697 27.57959628 -0.26718097 30.12963867 -0.30175781 C33.79096897 -0.35016739 37.45168982 -0.37294474 41.11328125 -0.390625 C42.82902092 -0.42159271 42.82902092 -0.42159271 44.579422 -0.45318604 C45.64029526 -0.45348816 46.70116852 -0.45379028 47.79418945 -0.45410156 C49.19650566 -0.46742523 49.19650566 -0.46742523 50.62715149 -0.48101807 C53 0 53 0 54.80010986 1.72283936 C56.17479229 4.33172215 56.38537305 5.95159141 56.40405273 8.88867188 C56.41673691 9.85647583 56.42942108 10.82427979 56.44248962 11.82141113 C56.43955399 12.86003296 56.43661835 13.89865479 56.43359375 14.96875 C56.4388356 16.04120972 56.44407745 17.11366943 56.44947815 18.21862793 C56.45589803 20.4847731 56.45456182 22.75095159 56.44604492 25.01708984 C56.43753127 28.48725572 56.46630454 31.95577785 56.49804688 35.42578125 C56.49965885 37.62760367 56.49908142 39.82942901 56.49609375 42.03125 C56.51294472 43.58918274 56.51294472 43.58918274 56.53013611 45.17858887 C56.51606468 46.6302948 56.51606468 46.6302948 56.50170898 48.11132812 C56.50154282 48.9608606 56.50137665 49.81039307 56.50120544 50.68566895 C55.81061384 53.87449623 54.58352009 55.05209378 52 57 C49.59628296 57.49447632 49.59628296 57.49447632 46.89599609 57.48583984 C45.88169525 57.4919931 44.86739441 57.49814636 43.82235718 57.50448608 C42.18939194 57.48292953 42.18939194 57.48292953 40.5234375 57.4609375 C39.40184235 57.46002106 38.28024719 57.45910461 37.12466431 57.4581604 C34.755918 57.45212173 32.38717942 57.43636792 30.01855469 57.41162109 C26.38187725 57.37506912 22.74621708 57.37060202 19.109375 57.37109375 C16.80988698 57.36126457 14.51040589 57.34960844 12.2109375 57.3359375 C10.57189957 57.33259903 10.57189957 57.33259903 8.89974976 57.32919312 C7.89175323 57.31643341 6.88375671 57.30367371 5.84521484 57.29052734 C4.51095963 57.27909195 4.51095963 57.27909195 3.14974976 57.26742554 C1 57 1 57 -1 55 C-1.24723816 52.76086426 -1.24723816 52.76086426 -1.24291992 49.93945312 C-1.24599655 48.88495972 -1.24907318 47.83046631 -1.25224304 46.74401855 C-1.24146477 45.02994812 -1.24146477 45.02994812 -1.23046875 43.28125 C-1.23001053 42.11243286 -1.22955231 40.94361572 -1.2290802 39.73937988 C-1.22605492 37.26455675 -1.21816046 34.78973557 -1.20581055 32.31494141 C-1.18757623 28.51588228 -1.18530066 24.71706702 -1.18554688 20.91796875 C-1.18063101 18.51822705 -1.1748024 16.11848701 -1.16796875 13.71875 C-1.16685593 12.57603638 -1.1657431 11.43332275 -1.16459656 10.25598145 C-1.15821671 9.20148804 -1.15183685 8.14699463 -1.14526367 7.06054688 C-1.14145187 6.1294812 -1.13764008 5.19841553 -1.13371277 4.23913574 C-1 2 -1 2 0 0 Z " fill="#FEFEFE" transform="translate(233,149)"/>
<path d="M0 0 C7.59892125 4.22472136 12.26450688 10.79352065 15 19 C15.86779066 30.06788744 14.70619385 37.63715527 7.75 46.3125 C2.74599842 51.71466945 -3.35233808 54.58430003 -10.6640625 55.23828125 C-19.25418463 55.45360093 -26.34057914 53.98337571 -33.3125 48.75 C-39.67888122 42.23556341 -43.01681782 35.32692274 -43.375 26.1875 C-43.19111092 17.43654319 -39.95615902 11.17567244 -34.0703125 4.79296875 C-24.31889495 -3.65212683 -11.60485842 -5.51912796 0 0 Z " fill="#FCFDFE" transform="translate(382,48)"/>
<path d="M0 0 C1.21494141 -0.02835938 2.42988281 -0.05671875 3.68164062 -0.0859375 C13.63501101 -0.10775311 13.63501101 -0.10775311 17.34765625 2.84375 C20.12714006 6.17716974 20.68883357 8.49048796 20.6953125 12.6953125 C20.69724609 13.89220703 20.69724609 13.89220703 20.69921875 15.11328125 C20.69535156 15.94214844 20.69148438 16.77101563 20.6875 17.625 C20.69330078 18.87990234 20.69330078 18.87990234 20.69921875 20.16015625 C20.68914874 26.37335126 20.68914874 26.37335126 19.5625 27.5 C17.54285801 27.57244053 15.52082876 27.58377188 13.5 27.5625 C11.84291016 27.54896484 11.84291016 27.54896484 10.15234375 27.53515625 C9.29769531 27.52355469 8.44304687 27.51195313 7.5625 27.5 C7.57821045 28.41289795 7.5939209 29.3257959 7.61010742 30.26635742 C7.6613697 33.6676201 7.69891439 37.06846963 7.72729492 40.4699707 C7.74234066 41.93943782 7.76278238 43.40886034 7.78881836 44.87817383 C7.82538955 46.9957177 7.84226801 49.11266565 7.85546875 51.23046875 C7.8711792 52.50301514 7.88688965 53.77556152 7.90307617 55.08666992 C7.53749211 58.75063459 6.78261788 60.59781979 4.5625 63.5 C-1.09110477 66.65040939 -8.52808346 66.48409451 -14.703125 64.9296875 C-18.05291325 63.59258715 -19.40847413 62.54353881 -21.4375 59.5 C-21.69819641 57.23672485 -21.69819641 57.23672485 -21.7121582 54.55712891 C-21.72169022 53.55243561 -21.73122223 52.54774231 -21.74104309 51.51260376 C-21.74013168 50.42821014 -21.73922028 49.34381653 -21.73828125 48.2265625 C-21.74256638 47.11066742 -21.7468515 45.99477234 -21.75126648 44.84506226 C-21.75701307 42.4829781 -21.75750764 40.12087624 -21.75317383 37.75878906 C-21.7500185 34.14617641 -21.77345383 30.53438608 -21.79882812 26.921875 C-21.80110154 24.6276052 -21.80180442 22.3333332 -21.80078125 20.0390625 C-21.809991 18.95871735 -21.81920074 17.87837219 -21.82868958 16.76528931 C-21.76951492 7.16062586 -21.76951492 7.16062586 -18.4375 3.5 C-12.85615643 -0.8253192 -6.76146504 -0.01430241 0 0 Z " fill="#1786F4" transform="translate(210.4375,17.5)"/>
<path d="M0 0 C0.69275528 -0.00478363 1.38551056 -0.00956726 2.09925842 -0.01449585 C3.56090573 -0.01789017 5.02262943 -0.00871985 6.48413086 0.01220703 C8.71316237 0.0389486 10.93714181 0.01247511 13.16601562 -0.01953125 C14.5898548 -0.01622626 16.01369084 -0.00981816 17.4375 0 C19.3709729 0.00845947 19.3709729 0.00845947 21.34350586 0.01708984 C25.74345077 0.84420583 27.20240785 2.03083845 29.78515625 5.6640625 C30.38452148 9.12158203 30.38452148 9.12158203 30.34375 13.046875 C30.34025291 14.09100052 30.34025291 14.09100052 30.33668518 15.15621948 C30.32698185 16.62038515 30.30527298 18.08451521 30.2722168 19.54833984 C30.22265096 21.78930172 30.21072474 24.02806969 30.20507812 26.26953125 C30.09716435 37.19605035 30.09716435 37.19605035 27.78515625 40.6640625 C25.05436515 40.98075084 22.55447529 41.10811122 19.8203125 41.09765625 C19.0311998 41.1028981 18.2420871 41.10813995 17.42906189 41.11354065 C15.75879087 41.11996878 14.08847462 41.11861361 12.41821289 41.11010742 C9.8606707 41.10160576 7.30536766 41.1303307 4.74804688 41.16210938 C3.12630275 41.16372166 1.50455467 41.16314334 -0.1171875 41.16015625 C-0.88288559 41.17139023 -1.64858368 41.18262421 -2.43748474 41.19419861 C-5.60769753 41.15255029 -7.67732207 41.09694451 -10.19384766 39.0703125 C-12.28012789 34.1534359 -11.69263762 28.65487207 -11.66088867 23.39233398 C-11.65238294 21.23649473 -11.68114391 19.08331173 -11.71289062 16.92773438 C-11.71450306 15.54947996 -11.71392429 14.17122088 -11.7109375 12.79296875 C-11.71279053 11.54588135 -11.71464355 10.29879395 -11.71655273 9.01391602 C-10.60460453 1.58956503 -7.09869175 0.03108592 0 0 Z " fill="#1685F4" transform="translate(76.21484375,317.3359375)"/>
<path d="M0 0 C0.67151596 -0.00004028 1.34303192 -0.00008057 2.03489685 -0.00012207 C3.4477581 0.00521657 4.86062026 0.02272902 6.27319336 0.05175781 C8.43110132 0.09370155 10.5858927 0.09281638 12.74414062 0.0859375 C22.93454097 0.16357808 22.93454097 0.16357808 26.27734375 1.69897461 C28.65424483 4.52482162 28.37269284 6.72934209 28.3671875 10.37890625 C28.36864273 11.03579941 28.37009796 11.69269257 28.37159729 12.36949158 C28.36993976 13.75556889 28.35839432 15.14166488 28.33764648 16.52758789 C28.30864293 18.65264685 28.31704629 20.7752182 28.33007812 22.90039062 C28.32384189 24.24740799 28.31545183 25.59441746 28.3046875 26.94140625 C28.29493896 28.16867432 28.28519043 29.39594238 28.27514648 30.66040039 C28.14180908 31.62840576 28.00847168 32.59641113 27.87109375 33.59375 C24.2841264 35.98506157 21.64732799 35.9163833 17.5 35.9296875 C16.78126205 35.9363443 16.06252411 35.9430011 15.32200623 35.94985962 C13.80315711 35.95997573 12.28426363 35.96467696 10.76538086 35.96435547 C8.44505409 35.9687284 6.12663081 36.00505317 3.80664062 36.04296875 C2.32943358 36.04883732 0.85221751 36.05280644 -0.625 36.0546875 C-1.66266762 36.07624405 -1.66266762 36.07624405 -2.72129822 36.09823608 C-5.96148853 36.06759563 -7.86252853 35.77544163 -10.5625 33.93383789 C-13.61018972 29.38082885 -12.74048594 23.95974304 -12.69140625 18.65625 C-12.71525391 17.47611328 -12.73910156 16.29597656 -12.76367188 15.08007812 C-12.76173828 13.94119141 -12.75980469 12.80230469 -12.7578125 11.62890625 C-12.7585376 10.5912915 -12.7592627 9.55367676 -12.76000977 8.48461914 C-11.2260401 1.45802926 -6.59581232 -0.037498 0 0 Z " fill="#1686F4" transform="translate(76.12890625,73.40625)"/>
<path d="M0 0 C1.01449219 -0.00386719 2.02898437 -0.00773438 3.07421875 -0.01171875 C4.13253906 -0.00011719 5.19085938 0.01148438 6.28125 0.0234375 C7.33957031 0.01183594 8.39789063 0.00023437 9.48828125 -0.01171875 C11.01001953 -0.00591797 11.01001953 -0.00591797 12.5625 0 C13.9556543 0.00507568 13.9556543 0.00507568 15.37695312 0.01025391 C17.78125 0.3984375 17.78125 0.3984375 19.58032227 1.57202148 C22.22846338 5.59941398 21.24745974 11.18234941 21.21875 15.8359375 C21.2487207 17.55393555 21.2487207 17.55393555 21.27929688 19.30664062 C21.27865234 20.40814453 21.27800781 21.50964844 21.27734375 22.64453125 C21.28012329 24.15551392 21.28012329 24.15551392 21.28295898 25.69702148 C20.63879552 29.16547344 19.61114391 30.33083305 16.78125 32.3984375 C14.35522461 32.90014648 14.35522461 32.90014648 11.68359375 32.89453125 C10.71744141 32.89517578 9.75128906 32.89582031 8.75585938 32.89648438 C7.75361328 32.87650391 6.75136719 32.85652344 5.71875 32.8359375 C4.20958008 32.84657227 4.20958008 32.84657227 2.66992188 32.85742188 C-4.60956048 32.7942066 -4.60956048 32.7942066 -7.00415039 31.23852539 C-8.73016569 28.62365558 -8.60718486 26.64044943 -8.6171875 23.5234375 C-8.62105469 22.37359375 -8.62492188 21.22375 -8.62890625 20.0390625 C-8.61730469 18.83765625 -8.60570312 17.63625 -8.59375 16.3984375 C-8.60535156 15.19703125 -8.61695313 13.995625 -8.62890625 12.7578125 C-8.62503906 11.60796875 -8.62117187 10.458125 -8.6171875 9.2734375 C-8.61380371 8.21898437 -8.61041992 7.16453125 -8.60693359 6.078125 C-8.21875 3.3984375 -8.21875 3.3984375 -7.02001953 1.55615234 C-4.58701185 -0.00759426 -2.88281276 0.01050296 0 0 Z " fill="#FBFCFE" transform="translate(241.21875,234.6015625)"/>
<path d="M0 0 C0.99 0.33 1.98 0.66 3 1 C3 8.26 3 15.52 3 23 C2.67 23 2.34 23 2 23 C0.48462814 15.2472493 -0.27990605 7.89957062 0 0 Z " fill="#248EF7" transform="translate(513,228)"/>
<path d="M0 0 C1.47177418 3.82661288 0.57016757 6.31010622 -1 10 C-1.96715918 11.03179606 -2.96225307 12.0392288 -4 13 C-3.71517632 11.58194169 -3.42181856 10.16559621 -3.125 8.75 C-2.96257813 7.96109375 -2.80015625 7.1721875 -2.6328125 6.359375 C-2.00849925 4.03168856 -1.15161458 2.10968048 0 0 Z " fill="#117BF6" transform="translate(538,299)"/>
<path d="M0 0 C0.33 0.66 0.66 1.32 1 2 C-0.73397418 5.65047197 -2.19333016 7.55609075 -6 9 C-4.47291037 5.56404834 -2.40072955 2.88087546 0 0 Z " fill="#0E78F3" transform="translate(221,100)"/>
<path d="M0 0 C2.3125 0.1875 2.3125 0.1875 4 1 C-1.625 5 -1.625 5 -5 5 C-2.75 2.4375 -2.75 2.4375 0 0 Z " fill="#0F7BF6" transform="translate(511,104)"/>
<path d="M0 0 C0.99 0.33 1.98 0.66 3 1 C2.34 1 1.68 1 1 1 C1 1.66 1 2.32 1 3 C-1 4.625 -1 4.625 -3 6 C-3.66 5.34 -4.32 4.68 -5 4 C-2.6875 1.9375 -2.6875 1.9375 0 0 Z " fill="#107CF6" transform="translate(473,156)"/>
</svg>
