<svg xmlns="http://www.w3.org/2000/svg" viewBox="0 0 570 510" fill="none">

  <!-- ═══ QR CODE ═══ -->

  <!-- Top-left finder pattern -->
  <rect x="18" y="18" width="138" height="138" rx="18" fill="#2196F3"/>
  <rect x="40" y="40" width="94" height="94" rx="7" fill="white"/>
  <rect x="60" y="60" width="54" height="54" rx="7" fill="#2196F3"/>

  <!-- Bottom-left finder pattern -->
  <rect x="18" y="294" width="138" height="138" rx="18" fill="#2196F3"/>
  <rect x="40" y="316" width="94" height="94" rx="7" fill="white"/>
  <rect x="60" y="336" width="54" height="54" rx="7" fill="#2196F3"/>

  <!-- QR data modules -->
  <rect x="173" y="18"  width="34" height="34" rx="6" fill="#2196F3"/>
  <rect x="213" y="18"  width="34" height="34" rx="6" fill="#2196F3"/>

  <rect x="173" y="76"  width="34" height="34" rx="6" fill="#2196F3"/>
  <rect x="173" y="130" width="34" height="34" rx="6" fill="#2196F3"/>
  <rect x="213" y="106" width="34" height="34" rx="6" fill="#2196F3"/>

  <rect x="18"  y="172" width="70" height="34" rx="6" fill="#2196F3"/>
  <rect x="107" y="172" width="34" height="34" rx="6" fill="#2196F3"/>

  <rect x="173" y="202" width="34" height="34" rx="6" fill="#2196F3"/>
  <rect x="173" y="248" width="34" height="34" rx="6" fill="#2196F3"/>
  <rect x="213" y="226" width="34" height="34" rx="6" fill="#2196F3"/>

  <rect x="18"  y="258" width="34" height="34" rx="6" fill="#2196F3"/>

  <rect x="173" y="294" width="34" height="34" rx="6" fill="#2196F3"/>
  <rect x="213" y="320" width="34" height="34" rx="6" fill="#2196F3"/>
  <rect x="173" y="368" width="34" height="34" rx="6" fill="#2196F3"/>

  <!-- ═══ PRICE TAG ═══ -->
  <!-- Body: top is horizontal, right side curves down, lower-left ends in a point -->
  <path
    d="M250,44
       L438,44  Q462,44  462,68
       L460,312 Q460,340 440,356
       L316,428 Q298,442 280,430
       L216,370 Q202,354 216,336
       L250,44 Z"
    fill="#2196F3"
  />
  <!-- String hole -->
  <circle cx="404" cy="110" r="30" fill="white"/>

  <!-- ═══ RADIO WAVES ═══ -->
  <path d="M494,192 C516,246 516,274 494,328"
        stroke="#2196F3" stroke-width="32" stroke-linecap="round"/>
  <path d="M530,152 C561,248 561,272 530,366"
        stroke="#2196F3" stroke-width="31" stroke-linecap="round"/>

</svg>
